<?xml version="1.0" encoding="UTF-8"?>
<svg id="Layer_1" xmlns="http://www.w3.org/2000/svg" version="1.1" viewBox="0 0 1253 1165.96">
  <!-- Generator: Adobe Illustrator 30.5.1, SVG Export Plug-In . SVG Version: 2.1.4 Build 3)  -->
  <defs>
    <style>
      .st0, .st1, .st2, .st3 {
        font-family: ArialMT, Arial;
      }

      .st0, .st1, .st2, .st3, .st4, .st5, .st6, .st7, .st8, .st9, .st10, .st11, .st12, .st13, .st14, .st15 {
        isolation: isolate;
      }

      .st0, .st9 {
        fill: #566a86;
        font-size: 13px;
      }

      .st16, .st17, .st18, .st19, .st20, .st21, .st22, .st23, .st24, .st25, .st26, .st27, .st28, .st29, .st30, .st31, .st32, .st33, .st34, .st35, .st36, .st37, .st38, .st39, .st40, .st41, .st42, .st43, .st44, .st45, .st46, .st47, .st48, .st49 {
        stroke: #27324a;
      }

      .st16, .st34 {
        fill: #17becf;
      }

      .st50 {
        fill: #f7fafe;
        stroke: #d7deea;
      }

      .st51, .st52 {
        fill: #444b58;
        stroke: #22262e;
      }

      .st17, .st53, .st18, .st19, .st20, .st22, .st23, .st54, .st27, .st28, .st34, .st38, .st55, .st39, .st40, .st42, .st43, .st48, .st49 {
        stroke-width: 1.2px;
      }

      .st17, .st33 {
        fill: #b07aa1;
      }

      .st53, .st56 {
        fill: #3f7d55;
        stroke: #244832;
      }

      .st1 {
        font-size: 12.5px;
      }

      .st1, .st6, .st12, .st13 {
        fill: #1f2a3d;
      }

      .st18, .st31 {
        fill: #cab2d6;
      }

      .st19, .st25 {
        fill: #76b7b2;
      }

      .st2 {
        fill: #26314a;
      }

      .st2, .st6, .st14 {
        font-size: 15px;
      }

      .st20, .st44 {
        fill: #f28e2b;
      }

      .st21, .st22, .st29 {
        fill: #fdbf6f;
      }

      .st23, .st30 {
        fill: #59a14f;
      }

      .st54, .st57 {
        fill: #111722;
        stroke: #000;
      }

      .st24, .st42 {
        fill: #edc948;
      }

      .st26, .st49 {
        fill: #fb9a99;
      }

      .st3 {
        fill: #27324a;
        font-size: 12px;
      }

      .st27, .st46 {
        fill: #9aa0a6;
      }

      .st28, .st45 {
        fill: #6baed6;
      }

      .st58 {
        fill-opacity: .2;
      }

      .st58, .st59 {
        stroke: #8a93a3;
      }

      .st58, .st59, .st7 {
        fill: #8a93a3;
      }

      .st29 {
        stroke-miterlimit: 4;
        stroke-width: 1.2px;
      }

      .st60 {
        stroke: #c2ccdd;
      }

      .st60, .st59 {
        stroke-width: 1.5px;
      }

      .st60, .st55, .st47 {
        fill: none;
      }

      .st5, .st6, .st7, .st8, .st10, .st11, .st12, .st13, .st14, .st15 {
        font-family: Arial-BoldMT, Arial;
        font-weight: 700;
      }

      .st5, .st10 {
        font-size: 8.5px;
      }

      .st5, .st11 {
        fill: #fff;
      }

      .st32, .st39 {
        fill: #ff9da7;
      }

      .st59 {
        fill-opacity: .16;
        stroke-opacity: .55;
      }

      .st35, .st40 {
        fill: #9c755f;
      }

      .st36, .st48 {
        fill: #e15759;
      }

      .st7 {
        font-size: 22px;
      }

      .st8 {
        font-size: 11px;
      }

      .st8, .st15 {
        fill: #15202e;
      }

      .st37, .st43 {
        fill: #bcbd22;
      }

      .st9 {
        font-family: MyriadPro-Regular, 'Myriad Pro';
      }

      .st38, .st41 {
        fill: #4e79a7;
      }

      .st55 {
        stroke: #aeb8cc;
      }

      .st10 {
        fill: #3e2218;
      }

      .st11 {
        font-size: 9px;
      }

      .st12 {
        font-size: 18px;
      }

      .st52 {
        stroke-width: 1.3px;
      }

      .st13 {
        font-size: 24px;
      }

      .st47 {
        stroke-width: 3px;
      }

      .st14 {
        fill: #28324a;
      }

      .st15 {
        font-size: 10px;
      }
    </style>
  </defs>
  <g class="st4">
    <text class="st13" transform="translate(6.5 20.59)"><tspan x="0" y="0">AIDAnova · TIME MACHINE — Speaker Map</tspan></text>
  </g>
  <g class="st4">
    <text class="st0" transform="translate(6.5 46.59)"><tspan x="0" y="0">● ceiling (colour + letter per group) · ▲ centre · </tspan></text>
    <text class="st9" transform="translate(281.19 46.59)"><tspan x="0" y="0">⬡</tspan></text>
    <text class="st0" transform="translate(287.69 46.59)"><tspan x="0" y="0" xml:space="preserve"> wall (FX#) · ■ sub (#) · shaded = input - channel coverage · 5 m bar</tspan></text>
  </g>
  <rect class="st50" x=".5" y="82.59" width="1252" height="777"/>
  <polygon class="st59" points="233.2 351.59 364.3 165.49 497.74 182.79 635.9 262.89 655.7 306.89 409 639.59 248.11 522.69 233.2 351.59"/>
  <g class="st4">
    <g class="st4">
      <text class="st7" transform="translate(463.1 319.61)"><tspan x="0" y="0">Ch12</tspan></text>
    </g>
  </g>
  <polygon class="st59" points="497.74 182.79 702.7 106.53 1048.9 173.59 1144.72 217.99 1178.3 335.39 1148.7 407.49 985.24 284.89 901.72 428.83 757.18 344.95 635.9 262.89 497.74 182.79"/>
  <g class="st4">
    <g class="st4">
      <text class="st7" transform="translate(911.5 254.79)"><tspan x="0" y="0">Ch13</tspan></text>
    </g>
  </g>
  <polygon class="st59" points="217.7 733.79 176.98 620.99 282.2 547.33 409 639.59 507.03 506.71 673 610.19 772.5 682.59 905.6 753.26 713.2 826.69 217.7 733.79"/>
  <g class="st4">
    <g class="st4">
      <text class="st7" transform="translate(496.71 648.19)"><tspan x="0" y="0">Ch11</tspan></text>
    </g>
  </g>
  <polygon class="st59" points="734.68 655.09 898.2 434.89 985.24 284.89 1148.7 407.49 1177.9 617.09 1133.8 715.99 905.6 753.26 772.5 682.59 734.68 655.09"/>
  <g class="st4">
    <g class="st4">
      <text class="st7" transform="translate(943 552.19)"><tspan x="0" y="0">Ch10</tspan></text>
    </g>
  </g>
  <polyline class="st55" points="6.5 86.59 1246.5 86.59 1246.5 855.59 6.5 855.59"/>
  <polyline class="st55" points="193.4 94.19 193.5 94.19 275.6 135.39 275.6 135.49 207.9 270.49 207.9 270.49 125.7 229.29 125.7 229.19"/>
  <polyline class="st55" points="6.5 229.29 6.5 229.29 125.6 229.29 125.7 229.29 125.7 425.39 125.6 425.39 6.5 425.39 6.5 425.39"/>
  <polyline class="st55" points="6.5 425.49 6.5 425.49 191.1 425.49 191.2 425.49 191.2 508.19 191.1 508.19 6.5 508.19 6.5 508.19"/>
  <polyline class="st55" points="6.5 229.29 6.5 86.59 197.3 86.59 125.7 229.29"/>
  <circle class="st55" cx="698.8" cy="469.89" r="374.2"/>
  <circle class="st55" cx="702.7" cy="468.29" r="94.5"/>
  <line class="st55" x1="465.9" y1="736.09" x2="937.3" y2="736.09"/>
  <line class="st55" x1="797.2" y1="468.29" x2="1246.5" y2="468.29"/>
  <line class="st55" x1="608.2" y1="468.29" x2="191.2" y2="468.29"/>
  <line class="st55" x1="702.7" y1="373.79" x2="702.7" y2="95.79"/>
  <line class="st55" x1="702.7" y1="562.79" x2="702.7" y2="736.09"/>
  <rect class="st53" x="8" y="358.19" width="18" height="18" rx="2" ry="2"/>
  <g class="st4">
    <text class="st11" transform="translate(14.5 370.49)"><tspan x="0" y="0">1</tspan></text>
  </g>
  <rect class="st53" x="111.3" y="268.59" width="18" height="18" rx="2" ry="2"/>
  <g class="st4">
    <text class="st11" transform="translate(117.8 280.89)"><tspan x="0" y="0">1</tspan></text>
  </g>
  <rect class="st53" x="182.7" y="287.19" width="18" height="18" rx="2" ry="2"/>
  <g class="st4">
    <text class="st11" transform="translate(189.2 299.49)"><tspan x="0" y="0">8</tspan></text>
  </g>
  <rect class="st53" x="369.3" y="274.89" width="18" height="18" rx="2" ry="2"/>
  <g class="st4">
    <text class="st11" transform="translate(375.8 287.19)"><tspan x="0" y="0">4</tspan></text>
  </g>
  <rect class="st53" x="653.6" y="309.49" width="18" height="18" rx="2" ry="2"/>
  <g class="st4">
    <text class="st11" transform="translate(659.1 321.79)"><tspan x="0" y="0">Q</tspan></text>
  </g>
  <rect class="st53" x="1018.1" y="275.89" width="18" height="18" rx="2" ry="2"/>
  <g class="st4">
    <text class="st11" transform="translate(1024.5973 288.1898)"><tspan x="0" y="0">5</tspan></text>
  </g>
  <rect class="st53" x="1160.8" y="224.69" width="18" height="18" rx="2" ry="2"/>
  <g class="st4">
    <text class="st11" transform="translate(1167.2974 236.9899)"><tspan x="0" y="0">9</tspan></text>
  </g>
  <rect class="st53" x="840.2" y="416.89" width="18" height="18" rx="2" ry="2"/>
  <g class="st4">
    <text class="st11" transform="translate(845.7 429.19)"><tspan x="0" y="0">Q</tspan></text>
  </g>
  <rect class="st53" x="1162.85" y="704.29" width="18" height="18" rx="2" ry="2"/>
  <g class="st4">
    <text class="st11" transform="translate(1166.8457 716.5898)"><tspan x="0" y="0">10</tspan></text>
  </g>
  <rect class="st53" x="1019.95" y="634.59" width="18" height="18" rx="2" ry="2"/>
  <g class="st4">
    <text class="st11" transform="translate(1026.4459 646.8898)"><tspan x="0" y="0">6</tspan></text>
  </g>
  <rect class="st53" x="804.32" y="738.49" width="18" height="18" rx="2" ry="2"/>
  <g class="st4">
    <text class="st11" transform="translate(810.82 750.79)"><tspan x="0" y="0">2</tspan></text>
  </g>
  <rect class="st53" x="731.15" y="607.99" width="18" height="18" rx="2" ry="2"/>
  <g class="st4">
    <text class="st11" transform="translate(736.65 620.29)"><tspan x="0" y="0">Q</tspan></text>
  </g>
  <rect class="st53" x="578.25" y="738.09" width="18" height="18" rx="2" ry="2"/>
  <g class="st4">
    <text class="st11" transform="translate(584.75 750.39)"><tspan x="0" y="0">2</tspan></text>
  </g>
  <rect class="st53" x="361.5" y="635.09" width="18" height="18" rx="2" ry="2"/>
  <g class="st4">
    <text class="st11" transform="translate(367.99 647.39)"><tspan x="0" y="0">3</tspan></text>
  </g>
  <rect class="st53" x="131.35" y="641.59" width="18" height="18" rx="2" ry="2"/>
  <g class="st4">
    <text class="st11" transform="translate(137.85 653.89)"><tspan x="0" y="0">7</tspan></text>
  </g>
  <rect class="st53" x="544.25" y="501.79" width="18" height="18" rx="2" ry="2"/>
  <g class="st4">
    <text class="st11" transform="translate(549.75 514.09)"><tspan x="0" y="0">Q</tspan></text>
  </g>
  <polygon class="st52" points="215.7 307.19 206.2 301.69 206.2 290.69 215.7 285.19 225.2 290.69 225.2 301.69 215.7 307.19"/>
  <g class="st4">
    <text class="st5" transform="translate(210.74 299.49)"><tspan x="0" y="0">F5</tspan></text>
  </g>
  <polygon class="st52" points="230.3 136.69 220.8 131.19 220.8 120.19 230.3 114.69 239.8 120.19 239.8 131.19 230.3 136.69"/>
  <g class="st4">
    <text class="st10" transform="translate(203.34 145.23)"><tspan x="0" y="0">Transition FX</tspan></text>
  </g>
  <polygon class="st52" points="552.9 136.39 543.4 130.89 543.4 119.89 552.9 114.39 562.4 119.89 562.4 130.89 552.9 136.39"/>
  <g class="st4">
    <text class="st5" transform="translate(547.94 128.69)"><tspan x="0" y="0">F6</tspan></text>
  </g>
  <polygon class="st52" points="859.2 139.69 849.7 134.19 849.7 123.19 859.2 117.69 868.7 123.19 868.7 134.19 859.2 139.69"/>
  <g class="st4">
    <text class="st5" transform="translate(854.24 131.99)"><tspan x="0" y="0">F7</tspan></text>
  </g>
  <polygon class="st52" points="1169.8 220.69 1160.3 215.19 1160.3 204.19 1169.8 198.69 1179.3 204.19 1179.3 215.19 1169.8 220.69"/>
  <g class="st4">
    <text class="st5" transform="translate(1164.8403 212.9899)"><tspan x="0" y="0">F8</tspan></text>
  </g>
  <polygon class="st52" points="1182.29 703.01 1172.69 697.51 1172.69 686.51 1182.29 681.01 1191.79 686.51 1191.79 697.51 1182.29 703.01"/>
  <g class="st4">
    <text class="st5" transform="translate(1177.3274 695.3138)"><tspan x="0" y="0">F9</tspan></text>
  </g>
  <polygon class="st52" points="774.17 847.55 764.67 842.05 764.67 831.05 774.17 825.55 783.67 831.05 783.67 842.05 774.17 847.55"/>
  <g class="st4">
    <text class="st5" transform="translate(769.21 839.85) scale(.93 1)"><tspan x="0" y="0">F1</tspan></text>
  </g>
  <polygon class="st52" points="617 844.09 607.5 838.59 607.5 827.59 617 822.09 626.5 827.59 626.5 838.59 617 844.09"/>
  <g class="st4">
    <text class="st5" transform="translate(612.04 836.39)"><tspan x="0" y="0">F2</tspan></text>
  </g>
  <polygon class="st52" points="206.5 807.19 197 801.69 197 790.69 206.5 785.19 216 790.69 216 801.69 206.5 807.19"/>
  <g class="st4">
    <text class="st5" transform="translate(201.54 799.49)"><tspan x="0" y="0">F3</tspan></text>
  </g>
  <polygon class="st52" points="116.19 583.59 106.69 578.09 106.69 567.09 116.19 561.59 125.79 567.09 125.79 578.09 116.19 583.59"/>
  <g class="st4">
    <text class="st5" transform="translate(111.28 575.89)"><tspan x="0" y="0">F4</tspan></text>
  </g>
  <polygon class="st54" points="723.3 491.89 703.6 485.19 719.3 471.49 723.3 491.89"/>
  <polygon class="st54" points="724 447.99 718.1 467.99 703.8 452.89 724 447.99"/>
  <polygon class="st54" points="679.5 448.19 699.9 452.19 686.3 467.89 679.5 448.19"/>
  <polygon class="st54" points="680 491.29 685.2 471.19 700.1 485.79 680 491.29"/>
  <circle class="st17" cx="50.6" cy="141.29" r="11.5"/>
  <g class="st4">
    <text class="st8" transform="translate(46.32 145.09)"><tspan x="0" y="0">G</tspan></text>
  </g>
  <circle class="st17" cx="134.6" cy="141.29" r="11.5"/>
  <g class="st4">
    <text class="st8" transform="translate(130.32 145.09)"><tspan x="0" y="0">G</tspan></text>
  </g>
  <circle class="st42" cx="294.09" cy="340.39" r="11.5"/>
  <g class="st4">
    <text class="st8" transform="translate(290.73 344.19)"><tspan x="0" y="0">F</tspan></text>
  </g>
  <circle class="st27" cx="96.3" cy="279.09" r="11.5"/>
  <g class="st4">
    <text class="st8" transform="translate(89.27 282.89)"><tspan x="0" y="0">EL</tspan></text>
  </g>
  <circle class="st27" cx="45.8" cy="367.69" r="11.5"/>
  <g class="st4">
    <text class="st8" transform="translate(38.77 371.49)"><tspan x="0" y="0">EL</tspan></text>
  </g>
  <circle class="st27" cx="96.3" cy="367.79" r="11.5"/>
  <g class="st4">
    <text class="st8" transform="translate(89.27 371.59)"><tspan x="0" y="0">EL</tspan></text>
  </g>
  <circle class="st19" cx="56.9" cy="468.49" r="11.5"/>
  <g class="st4">
    <text class="st8" transform="translate(52.93 472.29)"><tspan x="0" y="0">D</tspan></text>
  </g>
  <circle class="st48" cx="244.7" cy="726.39" r="11.5"/>
  <g class="st4">
    <text class="st8" transform="translate(240.73 730.19)"><tspan x="0" y="0">C</tspan></text>
  </g>
  <circle class="st48" cx="328.4" cy="667.49" r="11.5"/>
  <g class="st4">
    <text class="st8" transform="translate(324.43 671.29)"><tspan x="0" y="0">C</tspan></text>
  </g>
  <circle class="st48" cx="293.7" cy="595.79" r="11.5"/>
  <g class="st4">
    <text class="st8" transform="translate(289.73 599.59)"><tspan x="0" y="0">C</tspan></text>
  </g>
  <circle class="st23" cx="277.3" cy="424.69" r="11.5"/>
  <g class="st4">
    <text class="st8" transform="translate(273.63 428.49)"><tspan x="0" y="0">E</tspan></text>
  </g>
  <circle class="st23" cx="352.2" cy="467.89" r="11.5"/>
  <g class="st4">
    <text class="st8" transform="translate(348.53 471.69)"><tspan x="0" y="0">E</tspan></text>
  </g>
  <circle class="st23" cx="425" cy="325.49" r="11.5"/>
  <g class="st4">
    <text class="st8" transform="translate(421.33 329.29)"><tspan x="0" y="0">E</tspan></text>
  </g>
  <circle class="st42" cx="333.5" cy="255.89" r="11.5"/>
  <g class="st4">
    <text class="st8" transform="translate(330.14 259.69)"><tspan x="0" y="0">F</tspan></text>
  </g>
  <circle class="st42" cx="377.1" cy="190.29" r="11.5"/>
  <g class="st4">
    <text class="st8" transform="translate(373.74 194.09)"><tspan x="0" y="0">F</tspan></text>
  </g>
  <circle class="st39" cx="509.9" cy="217.99" r="11.5"/>
  <g class="st4">
    <text class="st8" transform="translate(505.93 221.79)"><tspan x="0" y="0">H</tspan></text>
  </g>
  <circle class="st39" cx="608.6" cy="268.99" r="11.5"/>
  <g class="st4">
    <text class="st8" transform="translate(604.63 272.79)"><tspan x="0" y="0">H</tspan></text>
  </g>
  <circle class="st39" cx="627.7" cy="306.99" r="11.5"/>
  <g class="st4">
    <text class="st8" transform="translate(623.73 310.79)"><tspan x="0" y="0">H</tspan></text>
  </g>
  <circle class="st39" cx="525.1" cy="397.49" r="11.5"/>
  <g class="st4">
    <text class="st8" transform="translate(521.13 401.29)"><tspan x="0" y="0">H</tspan></text>
  </g>
  <circle class="st23" cx="411.5" cy="611.69" r="11.5"/>
  <g class="st4">
    <text class="st8" transform="translate(407.83 615.49)"><tspan x="0" y="0">E</tspan></text>
  </g>
  <circle class="st20" cx="451.8" cy="660.09" r="11.5"/>
  <g class="st4">
    <text class="st8" transform="translate(447.83 663.89)"><tspan x="0" y="0">B</tspan></text>
  </g>
  <circle class="st20" cx="510.2" cy="718.19" r="11.5"/>
  <g class="st4">
    <text class="st8" transform="translate(506.23 721.99)"><tspan x="0" y="0">B</tspan></text>
  </g>
  <circle class="st38" cx="564.9" cy="742.59" r="11.5"/>
  <g class="st4">
    <text class="st8" transform="translate(560.93 746.39)"><tspan x="0" y="0">A</tspan></text>
  </g>
  <circle class="st20" cx="517.1" cy="553.29" r="11.5"/>
  <g class="st4">
    <text class="st8" transform="translate(513.13 557.09)"><tspan x="0" y="0">B</tspan></text>
  </g>
  <circle class="st23" cx="478.9" cy="450.69" r="11.5"/>
  <g class="st4">
    <text class="st8" transform="translate(475.23 454.49)"><tspan x="0" y="0">E</tspan></text>
  </g>
  <circle class="st20" cx="603.2" cy="664.69" r="11.5"/>
  <g class="st4">
    <text class="st8" transform="translate(599.23 668.49)"><tspan x="0" y="0">B</tspan></text>
  </g>
  <circle class="st20" cx="645.9" cy="617.39" r="11.5"/>
  <g class="st4">
    <text class="st8" transform="translate(641.93 621.19)"><tspan x="0" y="0">B</tspan></text>
  </g>
  <circle class="st38" cx="672.4" cy="687.49" r="11.5"/>
  <g class="st4">
    <text class="st8" transform="translate(668.43 691.29)"><tspan x="0" y="0">A</tspan></text>
  </g>
  <circle class="st38" cx="726.9" cy="702.29" r="11.5"/>
  <g class="st4">
    <text class="st8" transform="translate(722.93 706.09)"><tspan x="0" y="0">A</tspan></text>
  </g>
  <circle class="st22" cx="795.8" cy="667.09" r="11.5"/>
  <g class="st4">
    <text class="st8" transform="translate(791.52 670.89)"><tspan x="0" y="0">O</tspan></text>
  </g>
  <circle class="st22" cx="777.4" cy="632.49" r="11.5"/>
  <g class="st4">
    <text class="st8" transform="translate(773.12 636.29)"><tspan x="0" y="0">O</tspan></text>
  </g>
  <circle class="st38" cx="701.9" cy="796.89" r="11.5"/>
  <g class="st4">
    <text class="st8" transform="translate(697.93 800.69)"><tspan x="0" y="0">A</tspan></text>
  </g>
  <circle class="st22" cx="894.1" cy="717.79" r="11.5"/>
  <g class="st4">
    <text class="st8" transform="translate(889.82 721.59)"><tspan x="0" y="0">O</tspan></text>
  </g>
  <circle class="st22" cx="952.2" cy="659.69" r="11.5"/>
  <g class="st4">
    <text class="st8" transform="translate(947.92 663.49)"><tspan x="0" y="0">O</tspan></text>
  </g>
  <circle class="st18" cx="1075.5" cy="675.19" r="11.5"/>
  <g class="st4">
    <text class="st8" transform="translate(1071.5281 678.9899)"><tspan x="0" y="0">N</tspan></text>
  </g>
  <circle class="st18" cx="1114.1" cy="696.09" r="11.5"/>
  <g class="st4">
    <text class="st8" transform="translate(1110.1281 699.8898)"><tspan x="0" y="0">N</tspan></text>
  </g>
  <circle class="st18" cx="1109.8" cy="595.89" r="11.5"/>
  <g class="st4">
    <text class="st8" transform="translate(1105.8281 599.6898)"><tspan x="0" y="0">N</tspan></text>
  </g>
  <circle class="st18" cx="1151.2" cy="608.69" r="11.5"/>
  <g class="st4">
    <text class="st8" transform="translate(1147.228 612.4899)"><tspan x="0" y="0">N</tspan></text>
  </g>
  <circle class="st28" cx="924.9" cy="484.99" r="11.5"/>
  <g class="st4">
    <text class="st8" transform="translate(921.54 488.79)"><tspan x="0" y="0">L</tspan></text>
  </g>
  <circle class="st28" cx="1055.2" cy="467.79" r="11.5"/>
  <g class="st4">
    <text class="st8" transform="translate(1051.8403 471.5898)"><tspan x="0" y="0">L</tspan></text>
  </g>
  <circle class="st28" cx="1126.7" cy="511.19" r="11.5"/>
  <g class="st4">
    <text class="st8" transform="translate(1123.3403 514.9899)"><tspan x="0" y="0">L</tspan></text>
  </g>
  <circle class="st28" cx="1126.8" cy="425.09" r="11.5"/>
  <g class="st4">
    <text class="st8" transform="translate(1123.4404 428.8898)"><tspan x="0" y="0">L</tspan></text>
  </g>
  <circle class="st43" cx="1151.7" cy="326.69" r="11.5"/>
  <g class="st4">
    <text class="st8" transform="translate(1147.728 330.4899)"><tspan x="0" y="0">K</tspan></text>
  </g>
  <circle class="st43" cx="1109.7" cy="340.09" r="11.5"/>
  <g class="st4">
    <text class="st8" transform="translate(1105.728 343.8898)"><tspan x="0" y="0">K</tspan></text>
  </g>
  <circle class="st43" cx="1113.9" cy="239.49" r="11.5"/>
  <g class="st4">
    <text class="st8" transform="translate(1109.9281 243.2898)"><tspan x="0" y="0">K</tspan></text>
  </g>
  <circle class="st34" cx="952.1" cy="275.49" r="11.5"/>
  <g class="st4">
    <text class="st8" transform="translate(949.04 279.29)"><tspan x="0" y="0">J</tspan></text>
  </g>
  <circle class="st34" cx="764.8" cy="318.19" r="11.5"/>
  <g class="st4">
    <text class="st8" transform="translate(761.74 321.99)"><tspan x="0" y="0">J</tspan></text>
  </g>
  <circle class="st34" cx="800.4" cy="271.09" r="11.5"/>
  <g class="st4">
    <text class="st8" transform="translate(797.34 274.89)"><tspan x="0" y="0">J</tspan></text>
  </g>
  <circle class="st34" cx="893.9" cy="217.89" r="11.5"/>
  <g class="st4">
    <text class="st8" transform="translate(890.84 221.69)"><tspan x="0" y="0">J</tspan></text>
  </g>
  <circle class="st40" cx="846.2" cy="182.79" r="11.5"/>
  <g class="st4">
    <text class="st8" transform="translate(844.67 186.59)"><tspan x="0" y="0">I</tspan></text>
  </g>
  <circle class="st40" cx="731.8" cy="233.09" r="11.5"/>
  <g class="st4">
    <text class="st8" transform="translate(730.27 236.89)"><tspan x="0" y="0">I</tspan></text>
  </g>
  <circle class="st40" cx="677.4" cy="233.39" r="11.5"/>
  <g class="st4">
    <text class="st8" transform="translate(675.87 237.19)"><tspan x="0" y="0">I</tspan></text>
  </g>
  <circle class="st40" cx="701.7" cy="138.59" r="11.5"/>
  <g class="st4">
    <text class="st8" transform="translate(700.17 142.39)"><tspan x="0" y="0">I</tspan></text>
  </g>
  <circle class="st43" cx="1026.1" cy="189.89" r="11.5"/>
  <g class="st4">
    <text class="st8" transform="translate(1022.1281 193.6898)"><tspan x="0" y="0">K</tspan></text>
  </g>
  <g class="st4">
    <text class="st14" transform="translate(682.28 439.19)"><tspan x="0" y="0">Stage</tspan></text>
  </g>
  <g class="st4">
    <text class="st14" transform="translate(45.4 176.99)"><tspan x="0" y="0">Entrance</tspan></text>
  </g>
  <g class="st4">
    <text class="st14" transform="translate(36.5 327.29)"><tspan x="0" y="0">Elevator</tspan></text>
  </g>
  <g class="st4">
    <text class="st14" transform="translate(186.95 182.29)"><tspan x="0" y="0">Exit</tspan></text>
  </g>
  <g class="st4">
    <text class="st14" transform="translate(671.16 777.29)"><tspan x="0" y="0">VIP Area</tspan></text>
  </g>
  <g class="st4">
    <text class="st14" transform="translate(834.42 276.39)"><tspan x="0" y="0">PS Fwd</tspan></text>
  </g>
  <g class="st4">
    <text class="st14" transform="translate(834 627.19)"><tspan x="0" y="0">SB Fwd</tspan></text>
  </g>
  <g class="st4">
    <text class="st14" transform="translate(488.88 276.39)"><tspan x="0" y="0">PS Aft</tspan></text>
  </g>
  <g class="st4">
    <text class="st14" transform="translate(488.46 627.19)"><tspan x="0" y="0">SB Aft</tspan></text>
  </g>
  <line class="st47" x1="26.5" y1="833.54" x2="176.98" y2="833.54"/>
  <g class="st4">
    <text class="st3" transform="translate(91.74 826.54)"><tspan x="0" y="0">5 m</tspan></text>
  </g>
  <g class="st4">
    <text class="st6" transform="translate(799.44 912.55)"><tspan x="0" y="0">GROUP COLOURS (ceiling)</tspan></text>
  </g>
  <circle class="st41" cx="810.44" cy="932.55" r="11"/>
  <g class="st4">
    <text class="st15" transform="translate(806.83 936.05)"><tspan x="0" y="0">A</tspan></text>
  </g>
  <circle class="st44" cx="945.44" cy="932.55" r="11"/>
  <g class="st4">
    <text class="st15" transform="translate(941.83 936.05)"><tspan x="0" y="0">B</tspan></text>
  </g>
  <circle class="st36" cx="1080.44" cy="932.55" r="11"/>
  <g class="st4">
    <text class="st15" transform="translate(1076.8278 936.0547)"><tspan x="0" y="0">C</tspan></text>
  </g>
  <circle class="st25" cx="1215.44" cy="932.55" r="11"/>
  <g class="st4">
    <text class="st15" transform="translate(1211.8278 936.0547)"><tspan x="0" y="0">D</tspan></text>
  </g>
  <circle class="st30" cx="810.44" cy="962.55" r="11"/>
  <g class="st4">
    <text class="st15" transform="translate(807.1 966.05)"><tspan x="0" y="0">E</tspan></text>
  </g>
  <circle class="st24" cx="945.44" cy="962.55" r="11"/>
  <g class="st4">
    <text class="st15" transform="translate(942.38 966.05)"><tspan x="0" y="0">F</tspan></text>
  </g>
  <circle class="st33" cx="1080.44" cy="962.55" r="11"/>
  <g class="st4">
    <text class="st15" transform="translate(1076.5494 966.0547)"><tspan x="0" y="0">G</tspan></text>
  </g>
  <circle class="st32" cx="1215.44" cy="962.55" r="11"/>
  <g class="st4">
    <text class="st15" transform="translate(1211.8278 966.0547)"><tspan x="0" y="0">H</tspan></text>
  </g>
  <circle class="st35" cx="810.44" cy="992.55" r="11"/>
  <g class="st4">
    <text class="st15" transform="translate(809.05 996.05)"><tspan x="0" y="0">I</tspan></text>
  </g>
  <circle class="st16" cx="945.44" cy="992.55" r="11"/>
  <g class="st4">
    <text class="st15" transform="translate(942.66 996.05)"><tspan x="0" y="0">J</tspan></text>
  </g>
  <circle class="st37" cx="1080.44" cy="992.55" r="11"/>
  <g class="st4">
    <text class="st15" transform="translate(1076.8278 996.0547)"><tspan x="0" y="0">K</tspan></text>
  </g>
  <circle class="st45" cx="1215.44" cy="992.55" r="11"/>
  <g class="st4">
    <text class="st15" transform="translate(1212.3844 996.0547)"><tspan x="0" y="0">L</tspan></text>
  </g>
  <circle class="st26" cx="810.44" cy="1022.55" r="11"/>
  <g class="st4">
    <text class="st15" transform="translate(806.2736 1026.0547)"><tspan x="0" y="0">M</tspan></text>
  </g>
  <circle class="st31" cx="945.44" cy="1022.55" r="11"/>
  <g class="st4">
    <text class="st15" transform="translate(941.8278 1026.0547)"><tspan x="0" y="0">N</tspan></text>
  </g>
  <circle class="st21" cx="1080.44" cy="1022.55" r="11"/>
  <g class="st4">
    <text class="st15" transform="translate(1076.5494 1026.0547)"><tspan x="0" y="0">O</tspan></text>
  </g>
  <circle class="st46" cx="1215.44" cy="1022.55" r="11"/>
  <g class="st4">
    <text class="st15" transform="translate(1209.0494 1026.0547)"><tspan x="0" y="0">EL</tspan></text>
  </g>
  <polygon class="st57" points="807.44 1053.55 815.24 1067.05 799.64 1067.05 807.44 1053.55"/>
  <g class="st4">
    <text class="st1" transform="translate(823.4386 1066.5547)"><tspan x="0" y="0">centre speaker (group P)</tspan></text>
  </g>
  <polygon class="st51" points="807.44 1093.55 799.64 1089.05 799.64 1080.05 807.44 1075.55 815.24 1080.05 815.24 1089.05 807.44 1093.55"/>
  <g class="st4">
    <text class="st1" transform="translate(823.4386 1088.5547)"><tspan x="0" y="0">wall-mounted — F# = FX channel</tspan></text>
  </g>
  <rect class="st56" x="799.44" y="1098.55" width="16" height="16" rx="2" ry="2"/>
  <g class="st4">
    <text class="st1" transform="translate(823.4386 1110.5547)"><tspan x="0" y="0">subwoofer — # = sub no.</tspan></text>
  </g>
  <rect class="st58" x="799.44" y="1120.55" width="16" height="16"/>
  <g class="st4">
    <text class="st1" transform="translate(823.4386 1132.5547)"><tspan x="0" y="0">shaded blocks + ChX = input channels (see list below plan)</tspan></text>
  </g>
  <circle class="st38" cx="837.6" cy="747.49" r="11.5"/>
  <circle class="st48" cx="200" cy="624.89" r="11.5"/>
  <g class="st4">
    <text class="st8" transform="translate(196.03 628.69)"><tspan x="0" y="0">C</tspan></text>
  </g>
  <g class="st4">
    <text class="st8" transform="translate(833.63 751.29)"><tspan x="0" y="0">A</tspan></text>
  </g>
  <circle class="st49" cx="144.3" cy="450.69" r="11.5"/>
  <g class="st4">
    <text class="st8" transform="translate(139.72 454.49)"><tspan x="0" y="0">M</tspan></text>
  </g>
  <circle class="st23" cx="277.3" cy="510.79" r="11.5"/>
  <g class="st4">
    <text class="st8" transform="translate(273.63 514.59)"><tspan x="0" y="0">E</tspan></text>
  </g>
  <circle class="st27" cx="45.4" cy="279.09" r="11.5"/>
  <g class="st4">
    <text class="st8" transform="translate(38.37 282.89)"><tspan x="0" y="0">EL</tspan></text>
  </g>
  <g class="st4">
    <g class="st4">
      <text class="st7" transform="translate(791.99 844.09)"><tspan x="0" y="0">Ch1</tspan></text>
    </g>
  </g>
  <g class="st4">
    <g class="st4">
      <text class="st7" transform="translate(634.4 839.85)"><tspan x="0" y="0">Ch2</tspan></text>
    </g>
  </g>
  <g class="st4">
    <g class="st4">
      <text class="st7" transform="translate(220.4 818.06)"><tspan x="0" y="0">Ch3</tspan></text>
    </g>
  </g>
  <g class="st4">
    <g class="st4">
      <text class="st7" transform="translate(96.3 605.89)"><tspan x="0" y="0">Ch4</tspan></text>
    </g>
  </g>
  <g class="st4">
    <g class="st4">
      <text class="st7" transform="translate(182.7 327.63)"><tspan x="0" y="0">Ch5</tspan></text>
    </g>
  </g>
  <g class="st4">
    <g class="st4">
      <text class="st7" transform="translate(562.4 141.29)"><tspan x="0" y="0">Ch6</tspan></text>
    </g>
  </g>
  <g class="st4">
    <g class="st4">
      <text class="st7" transform="translate(878.5 138.59)"><tspan x="0" y="0">Ch7</tspan></text>
    </g>
  </g>
  <g class="st4">
    <g class="st4">
      <text class="st7" transform="translate(1186.855 224.6897)"><tspan x="0" y="0">Ch8</tspan></text>
    </g>
  </g>
  <g class="st4">
    <g class="st4">
      <text class="st7" transform="translate(1187.8894 722.2897)"><tspan x="0" y="0">Ch9</tspan></text>
    </g>
  </g>
  <g class="st4">
    <g class="st4">
      <text class="st7" transform="translate(689.7 514.59)"><tspan x="0" y="0">Ch14</tspan></text>
    </g>
  </g>
  <g class="st4">
    <g class="st4">
      <text class="st7" transform="translate(639.2 367.19)"><tspan x="0" y="0">Ch15 - Qsubs</tspan></text>
    </g>
  </g>
  <g class="st4">
    <g class="st4">
      <text class="st7" transform="translate(262.24 122.57)"><tspan x="0" y="0">Ch16</tspan></text>
    </g>
  </g>
  <g>
    <line class="st60" x1="6.5" y1="889.09" x2="1252.5" y2="889.09"/>
    <g class="st4">
      <text class="st12" transform="translate(10.5 917.09)"><tspan x="0" y="0">INPUT CHANNELS (Ch 1–16) — source → fed to</tspan></text>
    </g>
    <g class="st4">
      <text class="st2" transform="translate(26.5 951.09)"><tspan x="0" y="0">Ch1 TV FX 1 → Sub 2</tspan></text>
    </g>
    <g class="st4">
      <text class="st2" transform="translate(26.5 981.09)"><tspan x="0" y="0">Ch2 TV FX 2 → Sub 2</tspan></text>
    </g>
    <g class="st4">
      <text class="st2" transform="translate(26.5 1011.0898)"><tspan x="0" y="0">Ch3 TV FX 3 → Sub 7</tspan></text>
    </g>
    <g class="st4">
      <text class="st2" transform="translate(26.5 1041.0898)"><tspan x="0" y="0">Ch4 TV FX 4 → Sub 4</tspan></text>
    </g>
    <g class="st4">
      <text class="st2" transform="translate(26.5 1071.0898)"><tspan x="0" y="0">Ch5 TV FX 5 → Sub 8</tspan></text>
    </g>
    <g class="st4">
      <text class="st2" transform="translate(26.5 1101.0898)"><tspan x="0" y="0">Ch6 TV FX 6 → (spare)</tspan></text>
    </g>
    <g class="st4">
      <text class="st2" transform="translate(26.5 1131.0898)"><tspan x="0" y="0">Ch7 TV FX 7 → (spare)</tspan></text>
    </g>
    <g class="st4">
      <text class="st2" transform="translate(26.5 1161.0898)"><tspan x="0" y="0">Ch8 TV FX 8 → Sub 9</tspan></text>
    </g>
    <g class="st4">
      <text class="st2" transform="translate(380.98 951.09)"><tspan x="0" y="0">Ch9 TV FX 9 → Sub 10</tspan></text>
    </g>
    <g class="st4">
      <text class="st2" transform="translate(380.98 981.09)"><tspan x="0" y="0">Ch10 Groups L, N, O → Sub 6</tspan></text>
    </g>
    <g class="st4">
      <text class="st2" transform="translate(380.9774 1011.0898)"><tspan x="0" y="0">Ch11 Groups A, B, C → Sub 3</tspan></text>
    </g>
    <g class="st4">
      <text class="st2" transform="translate(380.9774 1041.0898)"><tspan x="0" y="0">Ch12 Groups E, F, H → Sub 4</tspan></text>
    </g>
    <g class="st4">
      <text class="st2" transform="translate(380.9774 1071.0898)"><tspan x="0" y="0">Ch13 Groups I, J, K → Sub 5</tspan></text>
    </g>
    <g class="st4">
      <text class="st2" transform="translate(380.9774 1101.0898)"><tspan x="0" y="0">Ch14 Group P (stage)</tspan></text>
    </g>
    <g class="st4">
      <text class="st2" transform="translate(380.9774 1131.0898)"><tspan x="0" y="0">Ch15 Group Q (ceiling subs)</tspan></text>
    </g>
    <g class="st4">
      <text class="st2" transform="translate(380.9774 1161.0898)"><tspan x="0" y="0">Ch16 Transition FX</tspan></text>
    </g>
  </g>
  <circle class="st40" cx="556.63" cy="188.49" r="11.5"/>
  <g class="st4">
    <text class="st8" transform="translate(555.1 192.29)"><tspan x="0" y="0">I</tspan></text>
  </g>
  <circle class="st39" cx="451.9" cy="276.59" r="11.5"/>
  <g class="st4">
    <text class="st8" transform="translate(447.93 280.39)"><tspan x="0" y="0">H</tspan></text>
  </g>
  <circle class="st43" cx="1068.6" cy="253.79" r="11.5"/>
  <g class="st4">
    <text class="st8" transform="translate(1064.6281 257.5898)"><tspan x="0" y="0">K</tspan></text>
  </g>
  <circle class="st28" cx="992.3" cy="323.69" r="11.5"/>
  <g class="st4">
    <text class="st8" transform="translate(988.94 327.49)"><tspan x="0" y="0">L</tspan></text>
  </g>
  <circle class="st34" cx="886.7" cy="383.49" r="11.5"/>
  <g class="st4">
    <text class="st8" transform="translate(883.64 387.29)"><tspan x="0" y="0">J</tspan></text>
  </g>
  <circle class="st29" cx="878.42" cy="538.69" r="11.5" transform="translate(89.5918 1201.6826) rotate(-71.565)"/>
  <g class="st4">
    <text class="st8" transform="translate(874.14 542.49)"><tspan x="0" y="0">O</tspan></text>
  </g>
  <circle class="st28" cx="989.8" cy="612.29" r="11.5"/>
  <g class="st4">
    <text class="st8" transform="translate(986.44 616.09)"><tspan x="0" y="0">L</tspan></text>
  </g>
</svg>